<svg width="45.000000" height="52.500000" viewBox="0 0 45 52.5" fill="none" xmlns="http://www.w3.org/2000/svg" xmlns:xlink="http://www.w3.org/1999/xlink">
	<desc>
			Created with Pixso.
	</desc>
	<defs/>
	<path id="discord" d="M17.68 22.5C19.18 22.5 20.4 23.62 20.37 25C20.37 26.37 19.19 27.5 17.68 27.5C16.21 27.5 15 26.37 15 25C15 23.62 16.18 22.5 17.68 22.5ZM27.31 22.5C28.81 22.5 30 23.62 30 25C30 26.37 28.81 27.5 27.31 27.5C25.83 27.5 24.62 26.37 24.62 25C24.62 23.62 25.8 22.5 27.31 22.5ZM39.72 0C42.63 0 45 2.41 45 5.4L45 52.5L39.47 47.51L36.36 44.57L33.06 41.44L34.43 46.3L5.27 46.3C2.36 46.3 0 43.88 0 40.89L0 5.4C0 2.41 2.36 0 5.27 0L39.72 0L39.72 0ZM29.8 34.28C35.48 34.1 37.67 30.29 37.67 30.29C37.67 21.84 33.96 14.98 33.96 14.98C30.26 12.15 26.74 12.23 26.74 12.23L26.38 12.65C30.75 14.01 32.78 15.98 32.78 15.98C30.39 14.64 27.76 13.78 25.04 13.46C23.31 13.27 21.57 13.28 19.85 13.51C19.69 13.51 19.56 13.54 19.41 13.57C18.51 13.64 16.32 13.99 13.57 15.22C12.62 15.66 12.06 15.98 12.06 15.98C12.06 15.98 14.19 13.91 18.82 12.54L18.56 12.23C18.56 12.23 15.04 12.15 11.34 14.99C11.34 14.99 7.63 21.84 7.63 30.29C7.63 30.29 9.79 34.09 15.48 34.28C15.48 34.28 16.42 33.1 17.2 32.1C13.93 31.1 12.7 29 12.7 29C12.7 29 12.96 29.18 13.42 29.45C13.44 29.47 13.47 29.5 13.52 29.53C13.6 29.58 13.67 29.61 13.75 29.66C14.39 30.03 15.04 30.31 15.63 30.55C16.68 30.97 17.94 31.39 19.41 31.68C21.61 32.11 23.87 32.12 26.07 31.71C27.35 31.48 28.6 31.1 29.8 30.58C30.7 30.24 31.7 29.74 32.75 29.03C32.75 29.03 31.47 31.18 28.1 32.15C28.87 33.15 29.8 34.28 29.8 34.28L29.8 34.28Z" fill="#E4E4E4" fill-opacity="1.000000" fill-rule="nonzero"/>
</svg>
