<svg width="100.000000" height="125.000000" viewBox="0 0 100 125" fill="none" xmlns="http://www.w3.org/2000/svg" xmlns:xlink="http://www.w3.org/1999/xlink">
	<desc>
			Created with Pixso.
	</desc>
	<defs>
		<clipPath id="clip12_3">
			<rect id="noun-sasuke-eternal-mangekyou-sharingan-5362378" width="100.000000" height="125.000000" fill="white" fill-opacity="0"/>
		</clipPath>
	</defs>
	<g clip-path="url(#clip12_3)">
		<path id="path" d="M50 5.03C25.2 5.03 5.03 25.2 5.03 50C5.03 74.8 25.2 94.97 50 94.97C74.8 94.97 94.97 74.8 94.97 50C94.97 25.2 74.8 5.03 50 5.03ZM78.14 65.46C78.29 65.67 78.3 65.93 78.18 66.14C78.07 66.33 77.87 66.45 77.65 66.45C73.31 65.91 68.55 64.74 63.28 62.89C62.9 65.1 62.44 67.22 61.92 69.25C70.09 71.33 76.69 71.69 80.12 71.69C82.35 71.69 84.43 71.56 86.13 71.32C78.96 83.43 65.89 91.64 50.9 91.96C53.19 88.48 57.73 80.72 60.65 69.99C57.23 69.06 53.66 67.85 50 66.3C46.25 67.89 42.59 69.12 39.09 70.05C41.91 80.18 46.15 87.87 49.32 91.96C34.24 91.72 21.07 83.49 13.87 71.32C15.57 71.56 17.65 71.69 19.87 71.69C23.27 71.69 29.77 71.35 37.83 69.31C37.3 67.33 36.83 65.25 36.44 63.08C31.44 64.78 26.83 65.87 22.4 66.42C22.16 66.45 21.92 66.32 21.8 66.11C21.68 65.9 21.69 65.62 21.84 65.44C24.55 61.9 27.73 58.47 31.46 55.09C29.89 53.75 28.42 52.36 27.05 50.96C19.32 58.89 15 66.66 13.24 70.22C9.92 64.22 8.03 57.33 8.03 50C8.03 42.51 10 35.47 13.46 29.38C15.35 33.47 19.68 41.65 27.07 49.47C29.5 47.05 32.25 44.62 35.34 42.3C35.74 38.06 36.56 34.07 37.61 30.38C29.38 28.21 22.27 27.74 17.74 27.74C16.44 27.74 15.31 27.78 14.39 27.82C21.73 16.08 34.7 8.21 49.49 8.03C46.99 11.57 42.05 19.35 38.91 29.65C40.94 30.22 43.03 30.89 45.16 31.68C46.3 26.9 47.82 22.29 49.71 17.89C49.82 17.65 50.08 17.5 50.3 17.52C50.55 17.54 50.76 17.69 50.84 17.93C52.53 22.04 53.9 26.57 54.96 31.64C56.88 30.92 58.77 30.3 60.61 29.78C57.72 19.21 53.27 11.55 50.96 8.04C65.56 8.37 78.35 16.2 85.61 27.82C84.69 27.78 83.56 27.74 82.26 27.74C77.64 27.74 70.33 28.23 61.89 30.51C62.78 33.98 63.5 37.74 63.93 41.76C67.32 44.25 70.32 46.86 72.93 49.47C80.32 41.65 84.65 33.47 86.54 29.38C90 35.47 91.97 42.51 91.97 50C91.97 57.33 90.08 64.22 86.76 70.22C85 66.66 80.67 58.89 72.94 50.97C71.59 52.35 70.14 53.72 68.59 55.05C72.12 58.32 75.33 61.81 78.14 65.46Z" fill="#000000" fill-opacity="1.000000" fill-rule="nonzero"/>
		<path id="path" d="M35.15 51.87C35.09 50.62 35.06 49.33 35.06 48.02C35.06 46.54 35.11 45.11 35.22 43.68C32.46 45.8 30 48 27.79 50.22C29.17 51.62 30.65 53.02 32.23 54.38C33.16 53.54 34.14 52.71 35.15 51.87Z" fill="#FF0000" fill-opacity="1.000000" fill-rule="nonzero"/>
		<path id="path" d="M40.56 61.59C39.77 61.9 39 62.17 38.23 62.46C37.96 62.55 37.7 62.64 37.43 62.74C37.82 64.92 38.29 67.02 38.82 69.03C41.92 68.22 45.23 67.14 48.68 65.73C46.04 64.55 43.38 63.22 40.7 61.66C40.65 61.64 40.61 61.61 40.56 61.59Z" fill="#FF0000" fill-opacity="1.000000" fill-rule="nonzero"/>
		<path id="path" d="M44.12 36.59C44.36 35.28 44.63 33.98 44.91 32.69C42.77 31.89 40.65 31.22 38.62 30.65C37.64 34.02 36.88 37.65 36.46 41.47C38.47 40 40.62 38.59 42.92 37.27C43.33 37.04 43.73 36.81 44.12 36.59Z" fill="#FF0000" fill-opacity="1.000000" fill-rule="nonzero"/>
		<path id="path" d="M64.37 49.95C64.37 50.43 64.37 50.91 64.36 51.39C65.54 52.35 66.69 53.34 67.81 54.34C69.38 53 70.85 51.62 72.21 50.22C69.8 47.83 67.11 45.44 64.06 43.15C64.26 45.35 64.37 47.61 64.37 49.95Z" fill="#FF0000" fill-opacity="1.000000" fill-rule="nonzero"/>
		<path id="path" d="M57.07 37.27C59.1 38.44 61 39.66 62.8 40.95C62.37 37.33 61.7 33.93 60.88 30.78C59.02 31.31 57.11 31.93 55.16 32.66C55.42 33.93 55.65 35.24 55.86 36.58C56.26 36.8 56.67 37.03 57.07 37.27Z" fill="#FF0000" fill-opacity="1.000000" fill-rule="nonzero"/>
		<path id="path" d="M59.55 61.51C59.48 61.57 59.38 61.62 59.29 61.67C56.62 63.22 53.96 64.56 51.31 65.73C54.66 67.1 57.88 68.16 60.91 68.97C61.45 66.93 61.9 64.78 62.28 62.53C62.05 62.46 61.84 62.37 61.61 62.29C60.93 62.04 60.25 61.79 59.55 61.51Z" fill="#FF0000" fill-opacity="1.000000" fill-rule="nonzero"/>
		<path id="path" d="M56.06 37.88C56.17 38.63 56.28 39.39 56.38 40.16C56.61 41.92 56.82 43.81 57.01 45.93C58.78 47.13 60.49 48.36 62.08 49.58C62.5 49.9 62.92 50.23 63.34 50.56C63.35 50.36 63.35 50.16 63.35 49.95C63.35 47.31 63.21 44.78 62.96 42.31C60.96 40.88 58.84 39.48 56.56 38.16C56.39 38.06 56.23 37.97 56.06 37.88Z" fill="#000000" fill-opacity="1.000000" fill-rule="nonzero"/>
		<path id="path" d="M50.01 57.47C47.12 58.86 44.4 60.05 41.78 61.11C44.56 62.68 47.31 64.03 50 65.17C52.73 64.01 55.51 62.65 58.34 61.03C55.89 60.05 53.21 58.9 50.01 57.47Z" fill="#000000" fill-opacity="1.000000" fill-rule="nonzero"/>
		<path id="path" d="M37.75 49.78C39.39 48.5 41.12 47.21 42.89 45.95C43.05 43.99 43.27 42.04 43.53 40.15C43.64 39.4 43.76 38.65 43.89 37.91C43.74 37.99 43.59 38.07 43.43 38.16C40.89 39.64 38.51 41.22 36.31 42.85C36.16 44.54 36.08 46.27 36.08 48.03C36.08 49.05 36.09 50.07 36.14 51.07C36.66 50.64 37.2 50.21 37.75 49.78Z" fill="#000000" fill-opacity="1.000000" fill-rule="nonzero"/>
		<path id="path" d="M67.03 55C66.15 54.19 65.25 53.41 64.33 52.66C64 52.37 63.65 52.1 63.31 51.83C62.71 51.34 62.1 50.86 61.48 50.38C59.84 49.12 58.08 47.86 56.25 46.64L56.04 46.5L56.02 46.26C55.84 44.06 55.62 42.11 55.38 40.29C55.25 39.25 55.1 38.24 54.95 37.25C54.88 36.82 54.8 36.39 54.74 35.97C54.56 34.96 54.39 33.98 54.21 33.02C54.14 32.66 54.06 32.33 54 31.99C53.02 27.27 51.78 23.03 50.26 19.16C48.54 23.28 47.15 27.59 46.1 32.04C46.02 32.38 45.93 32.72 45.87 33.06C45.64 34.02 45.43 34.99 45.26 35.97C45.16 36.41 45.09 36.84 45.02 37.27C44.84 38.27 44.67 39.28 44.53 40.29C44.26 42.24 44.03 44.24 43.88 46.26L43.86 46.49L43.66 46.63C41.83 47.92 40.04 49.25 38.37 50.56C37.63 51.14 36.89 51.72 36.2 52.3C35.86 52.57 35.52 52.85 35.21 53.11C34.45 53.76 33.71 54.4 32.99 55.03C32.73 55.27 32.47 55.5 32.22 55.73C28.76 58.87 25.77 62.04 23.21 65.3C27.33 64.73 31.62 63.67 36.25 62.09C36.58 61.98 36.9 61.87 37.24 61.75C37.45 61.68 37.66 61.6 37.89 61.52C38.41 61.33 38.92 61.14 39.47 60.93C39.87 60.78 40.27 60.63 40.68 60.47C43.56 59.34 46.56 58.02 49.77 56.47L49.99 56.37L50.21 56.46C53.8 58.09 56.76 59.35 59.42 60.4C59.83 60.56 60.23 60.71 60.63 60.86C61.06 61.03 61.51 61.19 61.95 61.35C62.12 61.41 62.28 61.47 62.45 61.53C62.78 61.65 63.11 61.77 63.43 61.89C68.33 63.61 72.71 64.75 76.76 65.33C74.11 61.96 71.12 58.73 67.81 55.7C67.55 55.46 67.29 55.22 67.03 55ZM50 55.39C46.83 55.39 44.27 52.83 44.27 49.66C44.27 46.5 46.83 43.94 50 43.94C53.16 43.94 55.72 46.5 55.72 49.66C55.72 52.83 53.16 55.39 50 55.39Z" fill="#FF0000" fill-opacity="1.000000" fill-rule="nonzero"/>
	</g>
</svg>
