<svg width="89.939941" height="89.939941" viewBox="0 0 89.9399 89.9399" fill="none" xmlns="http://www.w3.org/2000/svg" xmlns:xlink="http://www.w3.org/1999/xlink">
	<desc>
			Created with Pixso.
	</desc>
	<defs/>
	<path id="path" d="M44.97 0C20.17 0 0 20.17 0 44.97C0 69.76 20.17 89.93 44.97 89.93C69.76 89.93 89.93 69.76 89.93 44.97C89.93 20.17 69.76 0 44.97 0ZM73.11 60.43C73.26 60.64 73.26 60.9 73.15 61.11C73.04 61.3 72.83 61.42 72.62 61.42C68.28 60.88 63.52 59.71 58.25 57.86C57.87 60.06 57.41 62.18 56.89 64.22C65.06 66.3 71.66 66.66 75.08 66.66C77.32 66.66 79.4 66.53 81.1 66.29C73.93 78.4 60.86 86.61 45.87 86.93C48.16 83.45 52.7 75.68 55.62 64.96C52.2 64.03 48.63 62.81 44.97 61.27C41.22 62.86 37.56 64.08 34.06 65.01C36.88 75.15 41.12 82.84 44.29 86.92C29.21 86.68 16.04 78.46 8.83 66.29C10.54 66.53 12.62 66.66 14.85 66.66C18.24 66.66 24.74 66.31 32.8 64.28C32.27 62.3 31.8 60.22 31.41 58.05C26.41 59.75 21.8 60.84 17.37 61.39C17.12 61.42 16.89 61.29 16.77 61.08C16.65 60.87 16.66 60.6 16.81 60.41C19.52 56.87 22.7 53.43 26.43 50.06C24.86 48.72 23.39 47.33 22.02 45.93C14.29 53.86 9.96 61.63 8.2 65.18C4.89 59.18 3 52.3 3 44.97C3 37.48 4.96 30.43 8.43 24.35C10.31 28.43 14.65 36.62 22.04 44.43C24.47 42.02 27.22 39.59 30.31 37.27C30.71 33.03 31.53 29.04 32.58 25.35C24.35 23.18 17.24 22.71 12.71 22.71C11.41 22.71 10.28 22.75 9.35 22.79C16.7 11.05 29.67 3.18 44.46 3C41.96 6.54 37.02 14.31 33.88 24.62C35.91 25.18 38 25.86 40.13 26.65C41.27 21.87 42.79 17.26 44.68 12.86C44.79 12.62 45.05 12.47 45.27 12.49C45.52 12.51 45.73 12.66 45.81 12.9C47.5 17.01 48.87 21.54 49.93 26.61C51.85 25.89 53.74 25.27 55.58 24.75C52.69 14.18 48.24 6.52 45.93 3.01C60.53 3.33 73.32 11.17 80.58 22.79C79.66 22.75 78.53 22.71 77.23 22.71C72.61 22.71 65.3 23.2 56.86 25.48C57.75 28.95 58.47 32.71 58.9 36.73C62.29 39.22 65.29 41.83 67.9 44.43C75.29 36.62 79.62 28.43 81.51 24.35C84.97 30.43 86.93 37.48 86.93 44.97C86.93 52.3 85.05 59.18 81.73 65.18C79.97 61.63 75.64 53.86 67.91 45.93C66.56 47.31 65.11 48.68 63.56 50.02C67.1 53.29 70.3 56.78 73.11 60.43Z" fill="#000000" fill-opacity="1.000000" fill-rule="nonzero"/>
</svg>
