<svg width="89.939941" height="89.939941" viewBox="0 0 89.9399 89.9399" fill="none" xmlns="http://www.w3.org/2000/svg" xmlns:xlink="http://www.w3.org/1999/xlink">
	<desc>
			Created with Pixso.
	</desc>
	<defs/>
	<path id="path" d="M44.97 0C20.17 0 0 20.17 0 44.97C0 69.76 20.17 89.93 44.97 89.93C69.76 89.93 89.93 69.76 89.93 44.97C89.93 20.17 69.76 0 44.97 0ZM73.11 60.43C73.26 60.64 73.26 60.9 73.15 61.11C73.04 61.3 72.83 61.42 72.62 61.42C68.28 60.88 63.52 59.71 58.25 57.86C57.87 60.06 57.41 62.18 56.89 64.22C65.06 66.3 71.66 66.66 75.08 66.66C77.32 66.66 79.4 66.53 81.1 66.29C73.93 78.4 60.86 86.61 45.87 86.93C48.16 83.45 52.7 75.68 55.62 64.96C52.2 64.03 48.63 62.81 44.97 61.27C41.22 62.86 37.56 64.08 34.06 65.01C36.88 75.15 41.12 82.84 44.29 86.92C29.21 86.68 16.04 78.46 8.83 66.29C10.54 66.53 12.62 66.66 14.85 66.66C18.24 66.66 24.74 66.31 32.8 64.28C32.27 62.3 31.8 60.22 31.41 58.05C26.41 59.75 21.8 60.84 17.37 61.39C17.12 61.42 16.89 61.29 16.77 61.08C16.65 60.87 16.66 60.6 16.81 60.41C19.52 56.87 22.7 53.43 26.43 50.06C24.86 48.72 23.39 47.33 22.02 45.93C14.29 53.86 9.96 61.63 8.2 65.18C4.89 59.18 3 52.3 3 44.97C3 37.48 4.96 30.43 8.43 24.35C10.31 28.43 14.65 36.62 22.04 44.43C24.47 42.02 27.22 39.59 30.31 37.27C30.71 33.03 31.53 29.04 32.58 25.35C24.35 23.18 17.24 22.71 12.71 22.71C11.41 22.71 10.28 22.75 9.35 22.79C16.7 11.05 29.67 3.18 44.46 3C41.96 6.54 37.02 14.31 33.88 24.62C35.91 25.18 38 25.86 40.13 26.65C41.27 21.87 42.79 17.26 44.68 12.86C44.79 12.62 45.05 12.47 45.27 12.49C45.52 12.51 45.73 12.66 45.81 12.9C47.5 17.01 48.87 21.54 49.93 26.61C51.85 25.89 53.74 25.27 55.58 24.75C52.69 14.18 48.24 6.52 45.93 3.01C60.53 3.33 73.32 11.17 80.58 22.79C79.66 22.75 78.53 22.71 77.23 22.71C72.61 22.71 65.3 23.2 56.86 25.48C57.75 28.95 58.47 32.71 58.9 36.73C62.29 39.22 65.29 41.83 67.9 44.43C75.29 36.62 79.62 28.43 81.51 24.35C84.97 30.43 86.93 37.48 86.93 44.97C86.93 52.3 85.05 59.18 81.73 65.18C79.97 61.63 75.64 53.86 67.91 45.93C66.56 47.31 65.11 48.68 63.56 50.02C67.1 53.29 70.3 56.78 73.11 60.43Z" fill="#000000" fill-opacity="1.000000" fill-rule="nonzero"/>
	<path id="path" d="M30.11 46.84C30.05 45.59 30.02 44.29 30.02 42.99C30.02 41.51 30.07 40.08 30.18 38.65C27.42 40.77 24.96 42.97 22.75 45.18C24.13 46.59 25.61 47.99 27.19 49.35C28.13 48.51 29.1 47.67 30.11 46.84Z" fill="#FF0000" fill-opacity="1.000000" fill-rule="nonzero"/>
	<path id="path" d="M35.53 56.55C34.74 56.87 33.97 57.14 33.2 57.42C32.93 57.52 32.66 57.61 32.4 57.71C32.79 59.89 33.25 61.99 33.79 64C36.89 63.18 40.2 62.11 43.65 60.7C41.01 59.52 38.34 58.18 35.66 56.63C35.62 56.61 35.58 56.58 35.53 56.55Z" fill="#FF0000" fill-opacity="1.000000" fill-rule="nonzero"/>
	<path id="path" d="M39.09 31.56C39.33 30.25 39.59 28.95 39.88 27.66C37.74 26.86 35.62 26.18 33.59 25.62C32.61 28.99 31.85 32.62 31.42 36.43C33.43 34.98 35.59 33.56 37.89 32.24C38.29 32 38.7 31.78 39.09 31.56Z" fill="#FF0000" fill-opacity="1.000000" fill-rule="nonzero"/>
	<path id="path" d="M59.34 44.91C59.34 45.39 59.34 45.87 59.32 46.35C60.51 47.31 61.66 48.3 62.78 49.3C64.35 47.96 65.81 46.58 67.17 45.18C64.77 42.79 62.07 40.4 59.03 38.11C59.23 40.31 59.34 42.57 59.34 44.91Z" fill="#FF0000" fill-opacity="1.000000" fill-rule="nonzero"/>
	<path id="path" d="M52.03 32.23C54.06 33.4 55.96 34.63 57.76 35.91C57.33 32.29 56.66 28.89 55.84 25.74C53.98 26.27 52.07 26.89 50.12 27.62C50.38 28.89 50.61 30.2 50.82 31.54C51.22 31.76 51.63 31.99 52.03 32.23Z" fill="#FF0000" fill-opacity="1.000000" fill-rule="nonzero"/>
	<path id="path" d="M54.52 56.48C54.45 56.54 54.35 56.59 54.26 56.64C51.59 58.18 48.92 59.53 46.28 60.7C49.63 62.06 52.85 63.13 55.88 63.93C56.41 61.9 56.87 59.75 57.25 57.5C57.02 57.42 56.8 57.34 56.58 57.26C55.9 57.01 55.22 56.76 54.52 56.48Z" fill="#FF0000" fill-opacity="1.000000" fill-rule="nonzero"/>
	<path id="path" d="M51.03 32.84C51.14 33.59 51.25 34.35 51.35 35.12C51.58 36.88 51.79 38.78 51.98 40.9C53.75 42.09 55.46 43.32 57.05 44.54C57.47 44.86 57.89 45.19 58.31 45.52C58.32 45.32 58.32 45.12 58.32 44.91C58.32 42.28 58.18 39.74 57.93 37.28C55.93 35.84 53.81 34.44 51.53 33.12C51.36 33.02 51.2 32.93 51.03 32.84Z" fill="#000000" fill-opacity="1.000000" fill-rule="nonzero"/>
	<path id="path" d="M44.98 52.43C42.09 53.83 39.37 55.02 36.75 56.08C39.53 57.65 42.28 59 44.97 60.14C47.7 58.98 50.48 57.62 53.31 56C50.86 55.02 48.18 53.87 44.98 52.43Z" fill="#000000" fill-opacity="1.000000" fill-rule="nonzero"/>
	<path id="path" d="M32.72 44.74C34.36 43.46 36.09 42.17 37.86 40.91C38.02 38.95 38.24 37 38.5 35.11C38.61 34.36 38.73 33.61 38.86 32.87C38.71 32.95 38.55 33.03 38.4 33.12C35.86 34.6 33.48 36.18 31.28 37.81C31.13 39.5 31.04 41.23 31.04 42.99C31.04 44.01 31.06 45.03 31.11 46.03C31.63 45.6 32.16 45.17 32.72 44.74Z" fill="#000000" fill-opacity="1.000000" fill-rule="nonzero"/>
	<path id="path" d="M62 49.96C61.12 49.15 60.22 48.37 59.29 47.62C58.97 47.33 58.62 47.06 58.28 46.79C57.67 46.3 57.06 45.82 56.45 45.34C54.8 44.08 53.04 42.82 51.22 41.6L51.01 41.46L50.99 41.22C50.8 39.02 50.59 37.07 50.35 35.25C50.22 34.22 50.06 33.2 49.91 32.21C49.85 31.78 49.77 31.35 49.71 30.93C49.53 29.92 49.36 28.94 49.17 27.98C49.11 27.63 49.03 27.29 48.97 26.95C47.99 22.23 46.75 17.99 45.23 14.12C43.51 18.24 42.12 22.55 41.06 27C40.99 27.34 40.9 27.68 40.84 28.02C40.61 28.98 40.4 29.95 40.23 30.93C40.13 31.37 40.05 31.8 39.99 32.23C39.8 33.23 39.64 34.24 39.5 35.25C39.23 37.2 39 39.2 38.84 41.22L38.83 41.45L38.63 41.59C36.79 42.88 35.01 44.21 33.34 45.52C32.59 46.1 31.86 46.68 31.16 47.26C30.83 47.53 30.49 47.81 30.17 48.07C29.41 48.72 28.67 49.36 27.96 49.99C27.7 50.23 27.43 50.46 27.18 50.69C23.73 53.83 20.74 57 18.17 60.26C22.29 59.69 26.59 58.63 31.23 57.05C31.54 56.94 31.87 56.83 32.21 56.71C32.41 56.64 32.63 56.56 32.86 56.48C33.38 56.29 33.89 56.1 34.43 55.89C34.84 55.74 35.24 55.59 35.65 55.43C38.53 54.3 41.53 52.98 44.74 51.43L44.96 51.33L45.17 51.42C48.77 53.05 51.73 54.31 54.39 55.36C54.79 55.52 55.2 55.67 55.6 55.82C56.03 55.99 56.48 56.15 56.91 56.31C57.09 56.37 57.25 56.43 57.41 56.49C57.75 56.61 58.08 56.73 58.4 56.85C63.29 58.57 67.67 59.71 71.73 60.29C69.08 56.92 66.08 53.7 62.78 50.66C62.52 50.42 62.26 50.18 62 49.96ZM44.97 50.36C41.8 50.36 39.24 47.8 39.24 44.63C39.24 41.47 41.8 38.9 44.97 38.9C48.13 38.9 50.69 41.47 50.69 44.63C50.69 47.8 48.13 50.36 44.97 50.36Z" fill="#FF0000" fill-opacity="1.000000" fill-rule="nonzero"/>
</svg>
