<svg width="50.000000" height="50.000000" viewBox="0 0 50 50" fill="none" xmlns="http://www.w3.org/2000/svg" xmlns:xlink="http://www.w3.org/1999/xlink">
	<desc>
			Created with Pixso.
	</desc>
	<defs/>
	<path id="telegram" d="M25 0C11.2 0 0 11.2 0 25C0 38.8 11.2 50 25 50C38.8 50 50 38.8 50 25C50 11.2 38.8 0 25 0ZM36.6 17C36.22 20.95 34.6 30.55 33.77 34.97C33.42 36.85 32.72 37.47 32.07 37.55C30.62 37.67 29.52 36.6 28.12 35.67C25.92 34.22 24.67 33.32 22.55 31.92C20.07 30.3 21.67 29.39 23.1 27.95C23.47 27.57 29.87 21.75 30 21.22C30.01 21.14 30.01 21.06 29.99 20.98C29.97 20.9 29.93 20.83 29.87 20.77C29.72 20.64 29.52 20.7 29.35 20.72C29.12 20.77 25.62 23.1 18.79 27.7C17.79 28.37 16.89 28.72 16.1 28.7C15.2 28.67 13.5 28.2 12.22 27.77C10.64 27.27 9.42 27 9.52 26.12C9.57 25.67 10.2 25.22 11.37 24.75C18.67 21.57 23.52 19.47 25.95 18.47C32.89 15.57 34.32 15.07 35.27 15.07C35.47 15.07 35.95 15.12 36.25 15.37C36.5 15.57 36.57 15.85 36.6 16.04C36.57 16.2 36.62 16.64 36.6 17Z" fill="#E4E4E4" fill-opacity="1.000000" fill-rule="nonzero"/>
</svg>
