<svg width="50.000000" height="49.997803" viewBox="0 0 50 49.9978" fill="none" xmlns="http://www.w3.org/2000/svg" xmlns:xlink="http://www.w3.org/1999/xlink">
	<desc>
			Created with Pixso.
	</desc>
	<defs/>
	<path id="vk" d="M19.76 0L21.28 0L28.71 0L30.23 0L32.13 0.02L33.03 0.04L33.91 0.06L34.75 0.09L35.55 0.12L36.33 0.17L37.08 0.22L37.8 0.28L38.5 0.35C42.12 0.76 44.61 1.63 46.48 3.51C48.36 5.38 49.23 7.87 49.64 11.49L49.71 12.19L49.77 12.91L49.82 13.66L49.86 14.43L49.92 15.66L49.94 16.51L49.97 17.86L49.99 19.76L50 21.8L49.99 28.71L49.99 30.23L49.97 32.13L49.95 33.03L49.93 33.9L49.9 34.74L49.87 35.55L49.82 36.33L49.77 37.08L49.71 37.8L49.64 38.49C49.23 42.12 48.36 44.6 46.48 46.48C44.61 48.35 42.12 49.23 38.5 49.64L37.8 49.71L37.08 49.77L36.33 49.82L35.55 49.86L34.33 49.91L33.47 49.94L32.13 49.97L30.23 49.98L28.18 49.99L21.28 49.99L19.76 49.98L17.86 49.96L16.96 49.95L16.08 49.93L15.25 49.9L14.44 49.86L13.66 49.82L12.91 49.77L12.19 49.71L11.5 49.64C7.87 49.23 5.38 48.35 3.51 46.48C1.63 44.6 0.76 42.12 0.35 38.49L0.28 37.8L0.22 37.08L0.17 36.33L0.13 35.55L0.07 34.33L0.05 33.47L0.02 32.13L0 30.22L0 28.18L0 21.28L0 19.76L0.02 17.86L0.04 16.95L0.06 16.08L0.09 15.24L0.12 14.43L0.17 13.66L0.22 12.91L0.28 12.19L0.35 11.49C0.76 7.87 1.63 5.38 3.51 3.51C5.38 1.63 7.87 0.76 11.5 0.35L12.19 0.28L12.91 0.22L13.66 0.17L14.44 0.12L15.66 0.07L16.52 0.05L17.86 0.02L19.76 0ZM14.14 15.2L8.43 15.2C8.7 28.2 15.2 36.01 26.6 36.01L27.25 36.01L27.25 28.58C31.43 28.99 34.6 32.06 35.87 36.01L41.79 36.01C40.16 30.1 35.89 26.83 33.22 25.58C35.89 24.03 39.64 20.28 40.54 15.2L35.16 15.2C34 19.33 30.54 23.08 27.25 23.43L27.25 15.2L21.87 15.2L21.87 29.62C18.54 28.78 14.33 24.74 14.14 15.2Z" fill="#E4E4E4" fill-opacity="1.000000" fill-rule="nonzero"/>
</svg>
